<svg width="170" height="170" xmlns="http://www.w3.org/2000/svg">
 <title>20</title>

 <g>
  <title>Layer 1</title>
  <path stroke="null" id="svg_72" d="m19.66774,143.4382c0,0 131.5,0 131.1,-0.40001c0.4,0.40001 11.06667,-0.93332 11.06667,8.90001c0,9.83333 -11.16667,9.5 -11.56667,9.09999c0.4,0.40001 -131.1,-0.26666 -131.5,0c-0.4,0.26666 -8.43333,0.06668 -8.6,-9.09999c-0.16667,-9.16667 9.5,-8.5 9.5,-8.5z" fill="#000000"/>
  <path stroke="null" id="svg_73" d="m19.66774,115.43797c0,0 131.5,0 131.09999,-0.40001c0.40001,0.40001 11.06667,-0.93333 11.06667,8.90001c0,9.83333 -11.16666,9.5 -11.56667,9.09999c0.40001,0.40001 -131.09999,-0.26666 -131.49999,0c-0.4,0.26666 -8.43333,0.06667 -8.6,-9.09999c-0.16667,-9.16667 9.5,-8.5 9.5,-8.5z" fill="#000000"/>
  <g id="svg_81">
   <ellipse ry="14.50012" rx="14.50012" id="svg_76" cy="90.68917" cx="64.58295" stroke="null" fill="#000000"/>
   <ellipse ry="14.50012" rx="14.50012" id="svg_78" cy="90.68917" cx="105.41705" stroke="null" fill="#000000"/>
  </g>
 </g>
</svg>